<?xml version="1.0" encoding="UTF-8" standalone="no"?>
<svg id="svg4530" xmlns:rdf="http://www.w3.org/1999/02/22-rdf-syntax-ns#" xmlns="http://www.w3.org/2000/svg" height="683" viewBox="0 0 700 683" width="700" version="1.1" xmlns:cc="http://creativecommons.org/ns#" xmlns:dc="http://purl.org/dc/elements/1.1/">
<path id="path4540" d="m208.5 678c-26.93-2.89-56.97-13.14-84.23-28.75-15.03-8.61-24.04-15.17-42.685-31.09-78.384-66.93-101.56-212.78-54.125-340.66 8.618-23.24 29.836-61.9 45.338-82.61 32.252-43.09 64.962-77.24 105.2-109.84 41.17-33.357 95.87-60.117 149-72.903 49.57-11.93 106.87-11.613 154.5 0.854 9.0884 2.379 37.484 11.789 39 12.924 0.55 0.4118 3.7 1.8134 7 3.1146 7.3161 2.8848 25.179 12.052 32 16.422 2.75 1.7619 7.3953 4.697 10.323 6.5222 26.418 16.471 62.546 53.29 77.677 79.163 0.55 0.94045 3.1207 5.2923 5.7128 9.6708 21.386 36.126 33.747 75.444 40.802 129.79 4.5356 34.936-0.30234 95.457-10.906 136.44-23.234 89.789-84.653 160.66-162.37 187.36-41.166 14.142-86.469 7.0682-124.09-19.377-4.3202-3.0366-9.2702-6.4879-11-7.6695-10.109-6.9053-32.149-33.583-38.242-46.289-3.4408-7.1753-4.3232-7.5838-12.015-5.5617-108.02 28.39-184.97-37.96-161.75-139.51 5.0124-21.922 16.65-49.301 27.162-63.899 2.5906-3.5978 5.4443-7.6798 6.3416-9.0711 2.4925-3.8646 16.579-18.147 23.868-24.2 5.7734-4.7944 8.6292-6.8764 19.211-14.005 34.385-23.165 74.078-25.615 108.65-6.7049 10.724 5.8655 35.221 22.962 40.96 28.585 2.3739 2.3264 3.8375 1.3876 7.725-4.955 2.1069-3.4375 7.8702-11.875 12.807-18.75 4.9372-6.875 10.996-15.361 13.465-18.859l4.4879-6.3585 5.0968 0.65695c2.8033 0.36132 9.5968 1.5172 15.097 2.5687 5.5 1.0515 17.425 3.2961 26.5 4.988s17.7 3.3124 19.166 3.6009c4.8212 0.94868 4.1758 3.0984-3.969 13.22-95.76 119-75.86 288.54 25.8 219.86 51.68-34.92 84.18-97.14 85.49-163.68 0.39553-20.002 0.1544-23.344-3.1028-43-18.69-112.8-130.65-193.65-245.78-177.49-65.02 9.12-133.02 52.86-182.65 117.49-1.901 2.475-3.7319 4.725-4.0686 5-8.4839 6.9279-40.701 61.861-49.95 85.171-1.1631 2.9311-3.0122 7.5792-4.109 10.329-1.0969 2.75-2.5803 7.025-3.2965 9.5-0.71618 2.475-1.8395 5.85-2.4963 7.5-3.3114 8.3192-9.4821 38.453-11.979 58.5-15.058 120.88 92.574 228.81 196.86 197.41 17.049-5.1335 16.689-5.619 11.515 15.524-17.144 70.058-13.258 60.895-27.754 65.435-23.793 7.4505-51.776 10.254-76.182 7.6332zm38.335-20.021c11.005-1.1592 26.56-4.2844 31.409-6.3106 3.3069-1.3817 3.5364-1.8363 6.2116-12.303 1.5278-5.9776 3.6149-13.991 4.6379-17.808 2.3664-8.8288 2.7665-8.5423-9.0933-6.5121-59.62 10.2-134-31.71-170.2-95.9-20.105-35.66-31.403-108.67-23.463-151.65 7.565-40.95 19.533-71.02 44.153-110.91 24.33-39.43 71.53-92.21 107.5-120.21 11.347-8.8332 44.126-29.361 46.916-29.381 0.32129-0.002 2.6173-1.0359 5.1023-2.2968 99.785-50.634 240.7-16.691 293.94 70.801 68.444 112.48 54.884 241.18-33.199 315.09-95.516 80.143-170.61-8.841-119.06-141.08 8.076-20.719 26.49-55.203 40.116-75.128 5.2439-7.6679 5.3078-9.1134 0.43625-9.8722-2.0625-0.32129-8.8381-1.5302-15.057-2.6865l-11.307-2.1023-1.693 2.3306c-0.94 1.28-10.25 14.51-20.7 29.39-22.37 31.86-20.89 30.86-29.28 19.87-9.27-12.16-31.63-32.31-35.84-32.31-0.39937 0-1.4482-0.6535-2.3308-1.4522-41.662-37.703-134.41 10.742-159.48 83.304-34.305 99.279 39.167 164.95 147.15 131.53 4.5206-1.3992 8.9724-2.3958 9.8928-2.2148 1.9239 0.37849 1.6936-0.0105 8.1855 13.829 24.122 51.425 85.645 85.221 137.3 75.422 70.81-13.432 135.29-77.969 160.91-161.06 1.6734-5.4263 3.4636-11.216 3.978-12.866 9.0216-28.935 14.081-86.118 11.103-125.5-8.83-116.85-75.12-205.58-180.05-241.01-17.51-5.909-30.85-9.117-53.54-12.878-40.83-6.765-93.92-1.728-139.64 13.249-141.63 46.39-263.01 192.47-278.39 335.03-8.197 75.975 11.708 159.44 48.458 203.18 1.4137 1.6829 4.3704 5.2165 6.5704 7.8524 39.52 47.35 111.83 78.522 168.33 72.57zm41.66-193.37c-42.221-8.3827-62.366-60.794-40.922-106.46 25.57-54.457 77.616-63.365 123.8-21.191 12.534 11.446 12.768 12.551 6.9865 33.084-7.596 26.979-8.0463 28.585-14.291 50.959l-6.0008 21.5-5.6151 5.2791c-11.629 10.933-31.902 18.332-49.652 18.123-4.56-0.05-11-0.63-14.3-1.29zm25.167-19.629c7.4161-1.2036 19.108-5.8126 23.774-9.3717 3.9353-3.0016 4.2128-3.7906 14.631-41.612 2.8028-10.175 6.198-22.214 7.5448-26.754 2.8557-9.6252 2.7856-9.8653-4.9291-16.863-21.829-19.8-52.341-25.211-68.8-12.201-48.783 38.561-28.652 115.96 27.779 106.8z"/>
</svg>
