<?xml version="1.0" encoding="UTF-8" standalone="no"?>
<!-- Created with Inkscape (http://www.inkscape.org/) -->

<svg
   xmlns:dc="http://purl.org/dc/elements/1.1/"
   xmlns:cc="http://creativecommons.org/ns#"
   xmlns:rdf="http://www.w3.org/1999/02/22-rdf-syntax-ns#"
   xmlns:svg="http://www.w3.org/2000/svg"
   xmlns="http://www.w3.org/2000/svg"
   xmlns:sodipodi="http://sodipodi.sourceforge.net/DTD/sodipodi-0.dtd"
   xmlns:inkscape="http://www.inkscape.org/namespaces/inkscape"
   width="744.09448819"
   height="1052.3622047"
   id="svg2"
   version="1.1"
   inkscape:version="0.48+devel r9772"
   sodipodi:docname="New document 1">
  <defs
     id="defs4" />
  <sodipodi:namedview
     id="base"
     pagecolor="#ffffff"
     bordercolor="#666666"
     borderopacity="1.0"
     inkscape:pageopacity="0.0"
     inkscape:pageshadow="2"
     inkscape:zoom="0.60150394"
     inkscape:cx="163.40355"
     inkscape:cy="526.18109"
     inkscape:document-units="px"
     inkscape:current-layer="layer1"
     showgrid="false"
     inkscape:window-width="1440"
     inkscape:window-height="851"
     inkscape:window-x="0"
     inkscape:window-y="1"
     inkscape:window-maximized="1" />
  <metadata
     id="metadata7">
    <rdf:RDF>
      <cc:Work
         rdf:about="">
        <dc:format>image/svg+xml</dc:format>
        <dc:type
           rdf:resource="http://purl.org/dc/dcmitype/StillImage" />
        <dc:title></dc:title>
      </cc:Work>
    </rdf:RDF>
  </metadata>
  <g
     inkscape:label="Layer 1"
     inkscape:groupmode="layer"
     id="layer1">
    <g
       id="g3147">
      <path
         style="fill:#4d4d4d"
         d="m 693.51705,964.47973 c -3.87435,-3.02617 -4.93838,-6.77207 -6.48318,-22.82367 -2.12046,-22.03317 -1.8311,-23.74982 4.0527,-24.04365 4.65882,-0.23262 4.42869,-0.87501 9.97206,27.83276 3.82342,19.80055 1.36927,25.99467 -7.54158,19.03456 z m -39.90366,5.14175 c -16.67525,-7.36152 -22.4696,-20.5087 -16.66803,-37.81905 4.28306,-12.77941 8.53755,-18.11211 17.67238,-22.15101 7.15617,-3.16406 13.83642,-1.63757 19.6204,4.48336 3.52133,3.72648 3.54863,3.711 -6.87724,3.90154 -7.06641,0.12906 -8.96158,0.95355 -12.60331,5.48248 -6.0474,7.52053 -9.89626,22.33609 -7.31768,28.1681 3.7882,8.56783 10.86436,9.55971 21.47566,3.01029 11.10942,-6.85683 15.69908,-5.28752 11.18754,3.8253 -4.43571,8.95968 -18.23705,14.74233 -26.48979,11.09905 z m -38.62673,-6.17462 c -2.33846,-1.16376 -6.41646,-6.29958 -9.06221,-11.41293 -2.64574,-5.11335 -5.68465,-9.62219 -6.75313,-10.01967 -1.06849,-0.39752 -3.51416,4.3821 -5.4348,10.62133 -3.41002,11.0776 -3.63035,11.29837 -9.37937,9.39788 -7.90444,-2.61297 -11.12842,-10.82857 -11.54518,-29.42039 -0.56446,-25.18044 -2.91428,-48.62388 -5.01836,-50.06619 -3.66269,-2.51074 3.70659,-7.0449 8.4609,-5.20582 4.26587,1.65014 4.92918,4.59749 7.01838,31.18401 1.26901,16.14887 2.92325,29.59989 3.6761,29.89113 0.75288,0.2912 2.53996,-2.80351 3.97127,-6.87716 2.52087,-7.17458 8.28177,-11.88336 11.66295,-9.53296 0.90905,0.63196 5.91166,9.88267 11.11686,20.55717 9.6865,19.86434 10.01697,25.22833 1.28659,20.8836 z m -79.65418,8.8933 c -15.44434,-7.55575 -25.32286,-27.11957 -22.0566,-43.68184 0.62381,-3.16318 0.37383,-7.47092 -0.55546,-9.57274 -1.4339,-3.24305 -0.41495,-4.15641 6.73113,-6.03359 16.44218,-4.31916 18.71354,-4.39834 24.20527,-0.84365 5.10127,3.3019 5.45688,4.1804 4.36563,10.7852 -0.96036,5.81275 -2.50146,7.56149 -8.04292,9.12663 -3.7702,1.06491 -8.62614,1.93993 -10.79094,1.94451 -8.60724,0.0184 -3.47606,21.79101 6.56522,27.85768 5.61923,3.39499 12.21163,0.95203 20.70988,-7.67453 4.31494,-4.38016 5.08861,-0.75513 1.84864,8.662 -3.82951,11.1305 -12.35402,14.62874 -22.97985,9.43033 z m 0.73078,-51.47769 c -0.22487,-0.50848 -1.60999,-1.09047 -3.07816,-1.29329 -1.46816,-0.20287 -2.22767,0.63033 -1.68774,1.85149 0.5399,1.22112 1.92509,1.80312 3.07818,1.29328 1.15307,-0.50982 1.91256,-1.34298 1.68772,-1.85148 z m 148.4253,-44.30431 c -6.982,-5.45355 -7.66048,-9.86685 -1.6229,-10.55692 7.09056,-0.81041 10.26644,1.53121 9.836,7.25233 -0.45503,6.04751 -3.25769,7.17518 -8.2131,3.30459 z m -206.22495,87.2566 c -1.42848,-1.43615 -2.60986,-4.57937 -2.62534,-6.98489 -0.016,-2.40554 -0.30372,-5.3797 -0.64057,-6.60926 -1.65242,-6.03155 -2.57177,-16.7625 -1.71957,-20.07126 0.7046,-2.73565 -1.11928,-4.4233 -6.94745,-6.42849 -4.3466,-1.49549 -8.25849,-3.52334 -8.69315,-4.50639 -1.53325,-3.4678 5.09232,-7.58034 9.47876,-5.88351 3.88901,1.50436 4.57404,-1.00093 5.62315,-20.56525 1.22595,-22.86142 4.82684,-35.1726 11.09108,-37.91968 6.05729,-2.65565 22.73926,0.7546 31.95882,6.53424 9.34764,5.85994 9.25171,8.23079 -0.20287,5.01474 -10.60894,-3.60868 -19.24146,-4.56319 -23.64814,-2.61482 -5.8466,2.58504 -9.55414,14.56365 -10.64648,34.39777 -1.00742,18.29231 0.63689,20.44911 14.55235,19.08765 8.37913,-0.81977 16.48008,3.2855 15.82605,8.02007 -0.59698,4.32143 -6.06128,5.48708 -16.6563,3.55312 -5.51684,-1.00701 -10.60362,-1.57758 -11.30394,-1.26794 -2.43134,1.075 -1.40004,13.43353 1.70758,20.46202 1.71869,3.88719 3.21207,8.81314 3.31859,10.94654 0.24579,4.9223 -7.04008,8.28632 -10.47252,4.83536 z m 131.72097,-74.36605 c -5.88878,-4.59962 -6.42218,-7.35069 -1.81978,-9.38561 3.92023,-1.73329 10.91416,1.8106 13.03366,6.60431 1.70392,3.85382 -7.05838,6.02709 -11.21388,2.7813 z m 104.50729,-62.06255 c -3.97786,-0.89471 -4.85829,-2.42048 -6.03109,-10.45187 -0.75529,-5.17236 -0.89127,-11.84838 -0.30215,-14.83565 0.58912,-2.98727 0.44842,-6.87887 -0.3127,-8.64802 -2.53112,-5.88337 -0.54441,-10.47326 4.78566,-11.05639 2.79393,-0.30565 5.60786,0.63836 6.25316,2.09786 1.17792,2.6641 1.90742,39.69556 0.8365,42.46401 -0.31439,0.81273 -2.66759,1.00626 -5.22938,0.43006 z m -57.95103,-2.53166 c -3.19408,-1.58955 -3.94181,-3.61699 -3.77507,-10.23607 0.11439,-4.53968 -0.0403,-14.18865 -0.34359,-21.44218 l -0.55155,-13.18821 -7.31486,-2.2112 c -4.02319,-1.21615 -7.82299,-3.36043 -8.44405,-4.76508 -1.45258,-3.28531 5.32637,-6.31329 10.04639,-4.48755 5.19701,2.01034 5.6298,-1.25583 3.33381,-25.1591 -1.45698,-15.16835 -1.05195,-21.46551 1.45185,-22.57255 5.95744,-2.63404 8.30722,2.74161 8.86132,20.27247 0.91805,29.04117 1.23277,29.75966 12.28696,28.05201 10.82828,-1.67273 15.67786,1.5878 12.92945,8.69291 -1.70513,4.40796 -2.35476,4.70461 -7.06263,3.22468 -2.85159,-0.89636 -7.4384,-1.35507 -10.19291,-1.01929 -4.24157,0.517 -4.89906,2.20092 -4.29527,11.00151 0.39205,5.7151 1.06082,15.59456 1.48616,21.95436 0.8001,11.96434 -1.55922,15.29555 -8.41615,11.88316 z m -36.86601,1.87214 c -4.81195,-2.03893 -7.22956,-4.89746 -9.25689,-10.94526 -3.23161,-9.64033 -4.3832,-9.58931 -7.87515,0.34897 -3.10041,8.82401 -5.76947,10.36614 -12.64348,7.3052 -9.9896,-4.44828 -14.94173,-18.88146 -15.25779,-44.4694 -0.0781,-6.324 1.23176,-9.94346 4.0494,-11.18927 5.12052,-2.26399 8.15926,3.56625 7.49887,14.38774 -0.71538,11.72301 3.68055,28.29016 7.10482,26.77615 6.19583,-2.73943 10.47697,-23.95144 8.50898,-42.15994 -0.31037,-2.87171 1.23942,-4.83676 4.55271,-5.77249 6.12707,-1.73034 7.61539,1.85324 9.07601,21.85308 0.58515,8.01225 2.33096,19.47062 3.87956,25.46302 l 2.81567,10.89524 5.61765,-3.53788 c 6.8039,-4.28496 7.7248,-2.92292 3.99057,5.90189 -3.52069,8.32012 -4.04001,8.54155 -12.06093,5.14292 z m -74.38722,5.47342 c -10.56169,-0.35953 -18.58903,-11.51671 -24.70901,-34.34308 -2.04839,-7.64011 -1.89456,-11.06559 0.54518,-12.1393 1.86977,-0.82169 6.43941,-5.35422 10.1557,-10.07006 l 6.7569,-8.57427 7.77704,1.76522 c 10.47939,2.37858 17.38004,14.79453 15.55708,27.99089 -1.43064,10.35644 -7.34545,14.49939 -19.57273,13.70942 -6.90144,-0.44588 -7.02617,-0.30476 -4.5689,5.1685 4.59009,10.22387 12.65843,11.56395 19.02993,3.1608 6.99504,-9.22557 10.33132,-8.41044 5.79989,1.417 -4.58346,9.94036 -7.79292,12.22049 -16.77108,11.91488 z m 6.1159,-37.87777 c 1.72943,-8.76946 -2.88675,-18.21683 -7.83264,-16.03003 -4.14887,1.83439 -11.04005,15.53895 -9.53043,18.95325 1.33694,3.02383 9.96929,5.91629 13.28346,4.45097 1.58187,-0.69942 3.41769,-4.01781 4.07961,-7.37419 z m -49.16415,34.51138 c -5.04033,-0.47471 -7.41843,-4.24985 -6.96192,-11.05174 0.56247,-8.38007 -1.50548,-27.79574 -3.02302,-28.38278 -0.83089,-0.32142 -3.00318,6.95594 -4.82727,16.1719 -2.05691,10.39194 -4.67744,17.07373 -6.89962,17.59213 -4.1217,0.96159 -10.58003,-8.62626 -9.22552,-13.6959 0.49681,-1.85941 0.13457,-6.98838 -0.80512,-11.39767 l -1.70839,-8.01689 -1.73447,7.03277 c -0.95396,3.86804 -2.31579,11.57179 -3.0263,17.1195 -1.32887,10.37547 -3.77012,12.36247 -10.02431,8.15912 -2.59293,-1.74268 -4.30002,-8.27243 -6.13225,-23.45626 -1.39647,-11.57273 -3.28096,-22.68701 -4.18772,-24.69846 -1.8651,-4.13724 4.01414,-7.72321 9.30609,-5.67615 2.32749,0.90032 3.51075,3.26748 3.73357,7.46907 0.47923,9.03722 2.78197,8.41187 3.8976,-1.05851 0.65619,-5.57005 2.41252,-8.62258 5.45289,-9.47693 3.89267,-1.09389 5.16866,0.30074 9.66286,10.56155 5.52387,12.61189 9.0667,13.2169 9.19743,1.5707 0.0551,-4.89304 1.43763,-6.74913 6.11122,-8.20347 5.50502,-1.71308 6.30989,-1.15681 9.08321,6.2776 1.67366,4.48648 4.04858,16.61486 5.27764,26.952 1.22904,10.33711 2.8102,19.01738 3.51365,19.2895 3.35977,1.29966 -2.45032,7.31729 -6.68025,6.91892 z M 720.79221,728.34049 c -1.10859,-0.42883 -3.19751,-3.45275 -4.64203,-6.71982 -2.87738,-6.50779 0.60221,-9.76176 7.02211,-6.56687 7.17199,3.5692 4.92504,16.1125 -2.38008,13.28669 z m -318.05076,96.55376 c -11.76572,-2.79424 -23.20891,-23.82794 -19.82055,-36.43205 2.79051,-10.38026 16.4104,-22.36078 24.97074,-21.96509 17.33133,0.80109 28.0406,27.85782 18.29414,46.21979 -3.89985,7.34719 -16.41367,13.84706 -23.44433,12.17735 z M 418.07906,808.835 c 5.4497,-7.8483 4.81118,-20.76918 -1.46678,-29.68127 -4.78782,-6.7967 -9.39996,-6.59183 -16.33477,0.72556 -8.00017,8.4415 -8.88655,14.51111 -3.82862,26.21693 6.31065,14.60506 12.8183,15.42907 21.63017,2.73878 z m -57.47826,19.14066 c -1.38515,-1.39263 -2.14642,-6.9773 -1.69167,-12.4104 0.45472,-5.4331 0.71375,-15.27926 0.57562,-21.88032 -0.4527,-21.63505 -2.85127,-20.83671 -12.62643,4.20259 -4.71616,12.08055 -8.53435,18.59314 -10.97206,18.71485 -4.96778,0.24807 -6.39677,-3.56976 -6.26923,-16.7492 0.0585,-6.03497 -0.95428,-13.32345 -2.25037,-16.19663 -2.31212,-5.12561 -2.41669,-5.0322 -5.54754,4.95914 -1.75504,5.60072 -3.24377,16.12775 -3.3083,23.39338 -0.11828,13.32305 -2.87194,17.31746 -9.62227,13.95813 -2.76048,-1.3738 -3.73404,-3.59615 -3.90915,-8.92362 -0.12837,-3.9018 -1.15949,-11.19613 -2.29154,-16.2096 -4.89755,-21.68948 -6.40714,-38.52202 -3.56736,-39.77762 4.84617,-2.1427 8.02392,3.16294 9.08147,15.16248 0.54814,6.21938 1.69328,11.57743 2.54482,11.90683 0.85149,0.3294 3.31795,-3.77206 5.481,-9.11431 2.16303,-5.34228 4.99979,-10.18497 6.3039,-10.76159 4.6142,-2.04013 11.9146,2.72062 15.05153,9.81544 3.65098,8.25748 4.96928,8.16073 9.71027,-0.71281 1.88571,-3.52946 5.49515,-7.35596 8.02094,-8.5034 9.85323,-4.47606 14.3916,6.24467 13.83295,32.67668 -0.14694,6.9575 -0.0954,15.67559 0.11485,19.37354 0.40935,7.20325 -4.52518,11.23487 -8.6613,7.07642 z m 281.32,-168.02976 c -8.24735,-2.51214 -14.59828,-8.95465 -19.6962,-19.98026 -6.20938,-13.42946 -8.2314,-14.32471 -20.7344,-9.18024 -6.94469,2.85751 -14.52688,4.15309 -20.32492,3.4731 -5.08641,-0.59652 -9.39003,-0.0564 -9.5636,1.20013 -0.17352,1.25661 -2.52989,2.64324 -5.23619,3.08144 -6.2059,1.00484 -8.13204,-5.58831 -11.45818,-39.22145 -2.24785,-22.72954 -2.08195,-23.93957 3.71264,-27.07997 3.33606,-1.80802 9.75627,-5.74251 14.26707,-8.74331 7.20307,-4.79178 8.97579,-5.07229 14.56252,-2.30428 6.38181,3.16199 10.43761,9.46717 11.8185,18.37322 1.01016,6.51482 -11.56268,26.15408 -20.44694,31.93896 -15.14564,9.86194 3.95755,16.94317 23.25148,8.61893 13.54853,-5.84552 14.51028,-7.7251 13.32275,-26.03908 -0.40609,-6.26311 -0.15747,-13.75746 0.55226,-16.65414 1.25693,-5.12919 1.54975,-5.24286 11.21651,-4.35435 5.45925,0.50178 15.93758,1.11674 23.28516,1.36662 9.2049,0.31299 13.91029,1.7006 15.13128,4.46214 0.97461,2.20431 1.24769,4.77272 0.60683,5.70762 -0.64083,0.93489 -9.59691,1.55249 -19.90237,1.37246 -10.30545,-0.18017 -19.47893,0.34728 -20.38551,1.17185 -1.60437,1.45922 -1.38253,15.93434 0.39423,25.72399 0.8989,4.95268 4.50398,4.96354 27.40222,0.0828 4.22935,-0.90151 6.88419,-0.0184 8.0804,2.68673 2.70184,6.11074 0.45787,7.61471 -15.3579,10.29326 -9.53919,1.61556 -14.92853,3.4844 -15.68458,5.43885 -1.70981,4.42019 10.11568,18.08518 16.03624,18.53062 5.6966,0.42859 14.20579,-6.77306 15.78454,-13.35907 0.98277,-4.09986 8.24481,-6.16463 9.74536,-2.77086 0.42685,0.9654 -0.2825,5.25074 -1.57629,9.52293 -3.16288,10.44381 -19.03786,19.61597 -28.80291,16.64151 z m -55.92647,-68.34953 c 4.70197,-7.92076 4.30948,-16.06919 -1.06712,-22.15464 -2.88093,-3.2608 -4.44723,-3.23293 -9.27071,0.16481 -8.91673,6.28128 -13.64923,24.46489 -9.06543,34.8321 2.00528,4.53539 13.67073,-3.18555 19.40326,-12.84233 z m -462.8298,288.22189 c -28.999375,8.91076 -47.263609,9.31089 -50.887448,1.11482 -2.040301,-4.61458 -0.562803,-5.37362 10.91828,-5.60929 19.447238,-0.39913 58.035688,-23.8232 65.112068,-39.52446 3.20373,-7.10857 7.80422,-33.86995 7.32875,-42.63188 -1.05642,-19.46786 -9.08206,-34.06465 -23.86428,-43.40369 -3.24405,-2.0495 -14.62684,-4.14638 -25.29508,-4.6597 -15.404318,-0.74121 -21.768476,0.11531 -30.919261,4.16125 -6.33734,2.80202 -12.074009,5.89922 -12.748126,6.88265 -0.674163,0.98342 1.86423,8.32671 5.640781,16.31839 7.555878,15.98912 6.531085,20.64639 -4.163008,18.91921 -9.739836,-1.57306 -26.900098,0.72247 -37.369456,4.9989 -8.666699,3.5401 -12.854419,-2.87584 -8.834197,-13.53473 1.789341,-4.74413 3.853115,-17.20902 4.586144,-27.69976 1.506495,-21.55974 2.717306,-24.5976 9.007471,-22.59934 2.442277,0.77586 6.435542,0.93289 8.873899,0.34897 2.495757,-0.59769 5.981853,0.98647 7.976307,3.62455 3.331274,4.40636 4.463254,4.31589 18.950703,-1.51477 11.661671,-4.69336 18.372242,-5.98457 27.600366,-5.31083 6.705947,0.48964 12.989327,0.53798 13.963087,0.10752 2.18694,-0.96694 25.00101,3.43707 33.53998,6.47457 11.43491,4.06765 25.73008,19.51392 32.92062,35.57155 5.89841,13.17212 6.40349,16.56481 5.02185,33.73518 -0.84486,10.49962 -3.5803,22.98768 -6.07873,27.75125 -2.49849,4.76356 -6.58851,12.8173 -9.08901,17.89719 -2.50046,5.07988 -5.29188,8.94773 -6.20311,8.59527 -0.91121,-0.35251 -4.26137,2.10645 -7.44467,5.46443 -5.489,5.78997 -13.67039,9.95261 -28.54393,14.52284 z m 43.61905,-79.82228 c -1.37849,-3.04294 -1.68827,-2.97213 -2.24143,0.51238 -0.83802,5.2789 0.3891,8.05429 2.31739,5.24128 0.83797,-1.22248 0.80379,-3.81162 -0.0758,-5.75366 z m 70.79828,22.85698 c -4.85856,-1.8794 -5.05811,-2.58641 -5.04484,-17.87133 0.007,-7.28078 -0.3211,-18.3592 -0.72764,-24.61871 -0.85785,-13.20817 1.39367,-19.88473 5.36069,-15.89632 3.35063,3.36871 9.08352,57.47935 6.22836,58.78731 -1.20331,0.55209 -3.82107,0.37096 -5.81657,-0.40095 z M 512.41059,634.02938 c -8.09262,-3.4642 -17.08785,-19.19191 -16.04836,-28.05972 0.95432,-8.14141 5.14571,-14.79005 12.18445,-19.32772 8.45709,-5.45201 23.28442,1.35005 26.83101,12.30877 0.97569,3.01485 2.30439,7.00666 2.95263,8.87073 0.64824,1.86408 -0.43301,7.69947 -2.40283,12.9676 -4.3303,11.58118 -14.29152,17.18948 -23.5169,13.24034 z m 16.26496,-16.21299 c 4.88077,-12.61746 -3.22319,-27.33667 -13.46867,-24.46309 -9.6317,2.70139 -11.02529,23.92035 -2.04146,31.08314 4.47176,3.56534 12.97394,-0.0635 15.51013,-6.6201 z m -40.90562,20.85131 c -16.61011,1.40087 -23.85851,-5.64327 -26.56558,-25.81701 -2.02833,-15.11565 -0.18888,-48.73244 2.75901,-50.42047 3.24881,-1.86037 9.61103,3.56822 7.63803,6.51727 -2.15606,3.22264 -2.81081,32.11454 -1.03096,45.49204 1.18594,8.91348 1.97915,10.33938 6.99392,12.57244 3.11097,1.38527 7.89823,1.52742 10.63842,0.31588 5.54645,-2.45234 10.16904,0.76395 9.58322,6.66777 -0.3317,3.3428 -1.67293,3.96844 -10.01603,4.67213 z M 235.04534,748.10899 c -1.53991,-1.54822 -2.44643,-3.72856 -2.01447,-4.84522 0.98942,-2.55781 9.76929,-1.39555 10.32497,1.3668 0.75233,3.73982 -5.46297,6.34128 -8.31048,3.47844 z M 420.24413,622.38314 c -2.79397,0.0903 -9.30476,-3.16038 -14.46833,-7.224 -9.32915,-7.34177 -12.7317,-7.95342 -14.96397,-2.68992 -0.64114,1.51177 -9.24151,6.80397 -19.11189,11.76041 -13.94704,7.00359 -18.21896,8.39472 -19.17042,6.2428 -0.67334,-1.5229 -2.18792,-2.34285 -3.36573,-1.82209 -1.17778,0.52077 -4.35168,-1.01913 -7.05311,-3.42198 -4.2163,-3.75029 -4.52974,-5.03103 -2.21391,-9.04656 3.76896,-6.53523 5.56545,-6.81491 6.50493,-1.0128 0.56674,3.50038 1.52112,4.34245 3.1955,2.81956 1.31309,-1.19428 2.28026,-9.37834 2.14925,-18.18677 -0.13089,-8.80845 0.7169,-18.98297 1.88422,-22.61005 1.1673,-3.62704 1.19821,-6.32702 0.0686,-5.99991 -1.1296,0.32702 -3.10145,0.77604 -4.38196,0.99759 -1.28055,0.22143 -4.26727,1.11916 -6.63715,1.99468 -4.71567,1.74212 -8.2794,-3.10308 -4.71268,-6.40724 3.95012,-3.6593 15.79414,-4.0962 24.69571,-0.91102 11.88842,4.25399 27.48788,15.78665 29.60207,21.88472 2.11899,6.112 2.30955,6.04319 9.77903,-3.53183 7.15562,-9.17267 11.14361,-11.1644 21.13352,-10.55477 7.64456,0.46649 18.11862,7.15269 20.83735,13.3017 2.24646,5.08082 0.92329,17.95378 -2.25049,21.89487 -4.56067,5.66329 -16.04409,12.34539 -21.52057,12.52261 z m 11.82947,-14.39548 c 2.23956,-1.8046 4.55165,-6.18493 5.13801,-9.73408 0.94432,-5.71549 0.35047,-7.13148 -5.19612,-12.38971 -7.65025,-7.25253 -16.52917,-6.53126 -21.90863,1.77964 -4.92971,7.61615 -5.19596,14.93787 -0.7506,20.63965 5.64181,7.23635 13.49706,7.13419 22.71734,-0.2955 z m -46.3084,-5.57506 c 0.93671,-3.46049 0.84745,-8.22713 -0.19829,-10.59252 -2.20425,-4.98535 -19.70159,-18.17494 -22.48081,-16.94614 -1.03289,0.45669 -2.32807,10.2476 -2.87822,21.75758 -1.13529,23.75288 0.31095,25.41481 14.9145,17.139 6.06385,-3.43635 9.48766,-7.09016 10.6429,-11.35792 z m -110.97353,37.3333 c -6.31632,1.43452 -14.63596,-6.53849 -17.94145,-17.19389 -3.44518,-11.10571 -3.50964,-11.89227 -2.86751,-34.98418 0.30585,-10.99982 -0.14626,-21.62709 -1.00449,-23.61613 -2.28161,-5.28731 -0.91004,-11.076 2.51235,-10.60323 5.13647,0.70957 6.47284,7.62367 5.91776,30.61755 -0.37578,15.56781 0.81198,26.1938 3.92743,35.13539 l 4.46616,12.81815 7.03095,-4.57813 c 8.72314,-5.67997 13.0091,-3.39394 8.8485,4.71954 -1.6803,3.2767 -3.71496,6.09576 -4.52143,6.2646 -0.8065,0.16895 -3.67221,0.80801 -6.36827,1.42033 z m -117.39033,34.83721 c -5.43273,0.60409 -12.42113,0.90697 -15.5298,0.67308 -3.10869,-0.2339 -7.40931,-0.10087 -9.55694,0.29553 -2.14762,0.3964 -7.78783,1.40583 -12.53379,2.24317 -4.74592,0.83733 -16.18464,0.47526 -25.419351,-0.80462 -9.234679,-1.27985 -24.543021,-2.64278 -34.01851,-3.02873 -18.39317,-0.74917 -25.979192,-5.70686 -12.816963,-8.37628 6.27554,-1.27276 36.566465,-0.19529 44.272164,1.57481 1.534322,0.35245 5.20234,0.21227 8.151099,-0.31168 4.434691,-0.78787 4.706231,-1.27859 1.570861,-2.83889 -5.306613,-2.64091 -5.265193,-2.78273 14.07357,-48.16877 3.75276,-8.80731 9.56569,-21.7373 12.91762,-28.73331 3.35191,-6.99601 5.79767,-13.46073 5.43498,-14.366 -1.85995,-4.64258 -18.08261,29.17657 -32.02791,66.76799 -8.476848,22.85051 -12.10034,26.91059 -19.521871,21.87401 -2.459859,-1.66938 -5.660702,-2.50987 -7.112961,-1.86775 -1.452258,0.64209 -3.057574,0.22396 -3.567403,-0.92907 -0.509829,-1.15307 -2.736676,-1.29636 -4.948509,-0.3184 -6.748394,2.98374 -11.693121,2.36045 -13.488536,-1.70028 -0.940069,-2.12615 -1.454895,-15.03025 -1.144037,-28.67573 0.70245,-30.83498 0.707012,-42.49744 0.02063,-53.39242 -0.295615,-4.69404 -0.141435,-9.78117 0.342422,-11.30469 0.483926,-1.52355 -0.541875,-5.98566 -2.27957,-9.91584 -2.981012,-6.74218 -2.798981,-7.20777 3.222413,-8.24384 3.510026,-0.60396 7.177145,-0.60037 8.149191,0.007 0.972023,0.60833 9.475305,1.95846 18.896168,3.00029 9.420867,1.04182 17.867617,2.28963 18.770527,2.77294 3.177644,1.70077 24.676164,1.62549 36.794944,-0.12883 10.43389,-1.51046 12.68007,-2.4746 15.10139,-6.48224 3.59502,-5.95028 10.86069,-6.66146 10.93528,-1.07034 0.0296,2.22138 0.81175,5.58641 1.73805,7.47785 0.92626,1.89141 0.59514,4.5221 -0.73581,5.8459 -2.56548,2.55166 -4.0174,33.27799 -1.80859,38.2737 0.71726,1.62219 0.47782,6.18247 -0.53207,10.13392 -1.00989,3.95146 -1.05621,8.94847 -0.10295,11.10446 0.95327,2.156 1.31445,6.32987 0.80262,9.27523 -0.51182,2.9454 -0.55537,11.77556 -0.0967,19.62258 l 0.83375,14.26732 6.16964,1.67007 c 3.90386,1.05677 6.24404,3.16116 6.37234,5.73034 0.23572,4.7205 -3.65229,6.526 -17.32758,8.04657 z m -7.97981,-15.89097 c -1.71253,-3.80299 -2.24061,-3.92922 -2.75962,-0.65961 -0.82961,5.22604 0.15404,7.45094 2.78086,6.28953 1.15309,-0.50984 1.14353,-3.0433 -0.0207,-5.62992 z m -23.59035,6.05891 c -1.21528,-0.83304 -1.14922,-5.93762 0.14693,-11.34352 1.29604,-5.40586 1.45888,-9.43202 0.36193,-8.94703 -2.80989,1.24238 -8.27885,22.78446 -6.00743,23.66311 3.09251,1.19626 7.88005,-1.74012 5.49868,-3.37256 z m 6.7094,-33.38685 c 0.35822,-4.76122 0.0921,-4.85065 -2.92797,-0.98401 -1.82707,2.33917 -2.68634,5.69069 -1.90943,7.44778 1.74949,3.95686 4.31088,0.53433 4.8374,-6.46377 z m -13.75864,3.29247 c -0.5171,-1.1695 -1.80724,-0.32766 -2.91776,1.90384 -1.09497,2.20021 -1.57369,4.94379 -1.06386,6.09689 0.51707,1.16947 1.80724,0.32763 2.91777,-1.90387 1.09493,-2.2002 1.57366,-4.94379 1.06385,-6.09686 z M 99.025427,623.58953 c 6.023573,-13.09502 11.664073,-24.57131 12.534493,-25.50292 2.65729,-2.84421 6.79102,-17.76547 4.6607,-16.82357 -1.09706,0.48507 -3.712,4.74287 -5.81091,9.46173 -2.09889,4.71889 -6.72258,14.28807 -10.27486,21.26484 -8.235857,16.17561 -15.517968,36.11961 -14.219522,38.94406 0.692318,1.50576 1.183259,1.29601 1.580719,-0.67635 0.317391,-1.57276 5.505422,-13.57366 11.528996,-26.66866 z m -3.688276,-17.6325 c 7.925509,-15.07628 7.193969,-21.05805 -0.895959,-7.32626 -6.870943,11.66271 -23.992374,51.33819 -23.071995,53.46472 0.424418,0.98262 4.318885,-5.81467 8.652853,-15.10439 4.333923,-9.28973 11.225719,-23.25506 15.315101,-31.03407 z m 46.822959,-4.80542 c 0.34273,-5.18677 0.33997,-5.18562 -2.50563,1.05171 -1.5668,3.43433 -3.00313,8.58082 -3.19183,11.43666 -0.34272,5.18676 -0.33998,5.18562 2.50563,-1.05171 1.56681,-3.43434 3.00313,-8.58083 3.19183,-11.43666 z m -76.564166,33.63297 c -2.975694,-1.15108 -5.291917,3.65981 -3.602132,7.48161 1.414987,3.20029 1.688205,3.07263 3.511494,-1.64077 1.087395,-2.81113 1.128176,-5.43953 0.09055,-5.84088 z m 66.278086,-32.87264 c -0.50983,-1.15307 -1.34299,-1.91258 -1.85149,-1.68775 -0.50847,0.22488 -1.09046,1.61002 -1.29329,3.07818 -0.20286,1.46817 0.63034,2.22766 1.85149,1.68776 1.22112,-0.53993 1.80311,-1.92509 1.29329,-3.07819 z m -63.179434,15.06464 c 2.316201,-5.98771 2.169333,-6.48535 -2.030742,-6.8809 -5.093313,-0.47969 -6.568312,2.14457 -5.602088,9.967 0.842991,6.82498 4.347012,5.40822 7.63283,-3.0861 z m 82.624074,-52.57993 c -0.10911,-2.18534 -1.78698,-3.69135 -3.99012,-3.58132 -4.57918,0.22878 -7.21536,5.8495 -3.83136,8.1692 3.52902,2.41911 8.03927,-0.22648 7.82148,-4.58788 z m -87.425188,16.19206 c -0.101092,-2.02308 0.77014,-4.10006 1.935886,-4.61548 1.165768,-0.51542 3.998904,-4.99243 6.29585,-9.94889 l 4.176282,-9.01174 -7.258338,-0.85505 -7.258315,-0.85505 -1.139085,15.49267 c -0.626507,8.52098 -0.110718,15.03799 1.146145,14.48226 1.256887,-0.55572 2.202595,-2.66565 2.101575,-4.68872 z m 174.138938,54.55922 c -1.23724,-0.8481 -1.59219,-7.8776 -0.78877,-15.62105 0.8034,-7.7435 0.36441,-16.55868 -0.97555,-19.58929 -2.36496,-5.34886 1.24574,-9.79944 5.55415,-6.84607 2.91547,1.99853 5.44862,25.72915 3.6722,34.40128 -1.64075,8.00986 -3.76517,10.18929 -7.46203,7.65513 z M 699.44634,411.74568 c -3.5048,-7.92684 -6.26405,-29.76026 -4.15066,-32.84331 1.96908,-2.87249 7.72391,0.51426 7.20889,4.24244 -0.19759,1.43104 1.6251,8.57398 4.05065,15.87319 3.86806,11.64014 3.86671,13.61003 -0.0114,16.02693 -3.70912,2.31189 -4.85198,1.78067 -7.09804,-3.29925 z m -50.63688,13.0188 c -6.45663,0.98578 -17.1516,1.84731 -23.7666,1.91449 -9.89993,0.10067 -12.27832,-0.76667 -13.44652,-4.90319 -0.89876,-3.18239 0.03,-5.67112 2.5328,-6.78612 5.37149,-2.39249 4.44842,-10.92273 -2.77631,-25.66119 -4.785,-9.76147 -5.4557,-12.98234 -3.30074,-15.8509 1.48747,-1.98006 2.09953,-4.96836 1.36013,-6.64067 -2.15645,-4.87729 9.50767,-8.55133 20.69039,-6.51722 5.52247,1.00451 10.85832,1.46495 11.85741,1.02323 2.2399,-0.99036 28.28394,11.30889 32.3889,15.2956 4.56322,4.43169 11.32528,20.28204 10.92464,25.60736 -0.75541,10.03982 -15.87083,19.37445 -36.4641,22.51861 z m 23.64979,-20.38566 c 4.95672,-5.22853 5.45666,-7.31684 3.0531,-12.75299 -3.79253,-8.57759 -11.39785,-14.44929 -24.26777,-18.73598 -13.65557,-4.54834 -31.28423,-5.69192 -32.66628,-2.11909 -1.03447,2.67422 5.61524,29.16096 9.69238,38.60627 1.44446,3.3463 3.2742,4.19164 6.23715,2.88159 2.30615,-1.01966 4.37501,-0.80459 4.59744,0.47795 0.60946,3.51402 12.5655,3.94155 20.45477,0.73144 3.8345,-1.56031 9.63915,-5.65038 12.89921,-9.08919 z m -85.98428,19.23892 c -10.38452,1.15348 -20.15393,-1.95903 -25.97515,-8.27557 -9.81489,-10.64999 -12.40088,-51.0825 -3.03661,-47.4781 2.81278,1.08265 5.03764,-0.3432 9.93787,-6.36891 5.47668,-6.73454 7.22797,-7.73698 13.20922,-7.56103 8.17601,0.24051 12.80865,6.50372 11.19425,15.13438 -0.63683,3.40449 -6.74383,12.08481 -13.5711,19.28959 -9.2925,9.80631 -11.99088,14.14994 -10.73313,17.27738 2.90687,7.22808 13.15611,9.98575 26.47737,7.12401 7.30006,-1.56826 12.09418,-1.57071 11.4889,-0.007 -1.61451,4.17374 -11.94098,10.08103 -18.99162,10.86419 z m -9.53395,-46.68555 c 9.82807,-13.06799 9.13142,-19.8275 -1.15812,-11.23779 -6.98189,5.82842 -10.07949,12.79725 -6.71379,15.10439 3.06887,2.10371 3.56518,1.85991 7.87191,-3.8666 z m -66.38769,41.46253 c -12.20059,-7.8971 -17.1661,-32.06944 -7.72462,-37.60372 14.64775,-8.58599 22.66315,-6.70303 29.59566,6.95252 3.74441,7.3757 3.89694,10.33127 0.95338,18.47533 -4.45401,12.32306 -14.39995,17.62883 -22.82442,12.17587 z m 16.83831,-17.40428 c 3.34677,-6.05132 -1.09061,-15.23042 -7.5995,-15.72012 -4.06034,-0.30552 -5.97924,0.93782 -8.7058,5.64078 -3.33222,5.74758 -1.51297,15.88891 3.17566,17.70259 3.31056,1.28059 10.52048,-2.90557 13.12964,-7.62325 z M 698.7444,333.21123 c -7.11043,-8.21167 -8.02987,-10.85891 -4.7715,-13.73772 4.67675,-4.13198 8.37624,-3.1984 11.01999,2.78098 2.52993,5.72195 -2.7558,14.99042 -6.24849,10.95674 z m -225.16878,93.09342 c -10.02889,-1.51642 -21.94109,-24.62952 -20.7554,-40.27146 1.87609,-24.74972 16.91371,-35.97125 30.47069,-22.73814 8.92621,8.71291 7.77346,11.71002 -2.54348,6.61299 l -8.5257,-4.21207 -5.52032,7.70885 c -7.37884,10.3042 -7.5432,17.41433 -0.71125,30.76613 l 5.70496,11.14933 9.77388,-4.32145 c 5.37566,-2.37681 10.79873,-3.92869 12.05134,-3.44864 1.25255,0.48005 1.32109,1.29565 0.1522,1.81244 -1.16882,0.51678 -3.46645,3.78838 -5.10583,7.27022 -3.05335,6.48496 -9.32163,10.52904 -14.99115,9.6718 z m -52.34067,-11.23098 c -1.99807,-2.56283 -5.19988,-4.0163 -7.11515,-3.23 -6.30938,2.59041 -20.79261,2.7494 -34.04446,0.3739 -13.46142,-2.41308 -16.3494,-0.4707 -12.51287,8.4159 0.87543,2.02531 0.1749,4.30878 -1.55468,5.07353 -4.05018,1.79076 -7.86802,-6.69581 -9.93932,-22.09385 -1.46528,-10.89279 -6.02652,-29.9306 -8.92189,-37.23847 -2.02765,-5.11769 4.50593,-6.32829 8.15398,-1.51083 l 3.32096,4.38559 3.43302,-6.37157 c 6.30512,-11.70201 10.28043,-15.53797 15.6814,-15.13162 15.39968,1.15866 14.48189,27.60605 -1.54469,44.51153 -3.25615,3.43469 -5.49029,7.21741 -4.96477,8.40601 1.59301,3.60293 28.10044,5.25002 35.09876,2.18089 5.75946,-2.52643 6.32242,-3.7526 4.67399,-10.18871 -1.03075,-4.02438 -2.02464,-10.47468 -2.20867,-14.334 -0.26538,-5.56456 0.47891,-6.7862 3.59572,-5.90197 2.97649,0.84436 4.3001,3.21458 5.45389,9.76622 0.83792,4.75818 4.14792,14.53999 7.35554,21.73738 4.51511,10.13137 5.1366,13.39363 2.75208,14.44792 -1.69395,0.74896 -4.71471,-0.73509 -6.71279,-3.29787 z M 376.2911,375.41928 c 2.19499,-5.45064 3.66348,-12.41446 3.26327,-15.47524 -0.65379,-5.00036 -1.15731,-5.18596 -4.96259,-1.82918 -6.63389,5.85204 -10.32554,13.76095 -10.61946,22.75107 -0.25937,7.93234 -0.0971,8.18862 4.0288,6.36437 2.3645,-1.04544 6.09497,-6.36041 8.28998,-11.81102 z m -89.59912,32.45497 c -2.38698,-5.39862 -3.39043,-5.96975 -5.8611,-3.33596 -15.44786,16.46792 -27.46543,23.40296 -35.30163,20.3717 -6.9478,-2.68756 -7.61335,-6.10827 -1.33663,-6.86968 12.92401,-1.56777 18.68186,-4.60459 27.41588,-14.45971 7.93521,-8.95378 9.0307,-11.76491 8.84945,-22.70864 -0.13938,-8.41973 1.02396,-13.03404 3.57008,-14.15979 4.5784,-2.0243 5.57554,-0.11323 5.54283,10.6226 -0.0137,4.53298 1.32907,14.12826 2.98417,21.32284 1.98937,8.64776 1.99384,13.53 0.0137,14.40577 -1.9543,0.86405 -3.9976,-0.94034 -5.87618,-5.18913 z m -124.54239,52.68348 c -5.0082,-0.46355 -10.18428,-0.36597 -11.50242,0.21685 -5.12637,2.26658 -10.81701,-2.79174 -10.97836,-9.7585 -0.0844,-3.64304 -0.41644,-18.90607 -0.73792,-33.91785 -0.32152,-15.01177 -0.98603,-28.20219 -1.47674,-29.31206 -0.4907,-1.10985 -0.81252,-11.12612 -0.71512,-22.25836 0.25045,-28.63005 0.10202,-39.40852 -0.6302,-45.7252 -0.55047,-4.74956 0.3623,-5.71588 6.62486,-7.01341 14.27422,-2.95749 24.25088,-0.82534 22.10426,4.72398 -0.43582,1.12664 -0.27026,8.85448 0.36789,17.17296 0.63817,8.31853 1.41359,24.5994 1.72318,36.17973 0.3096,11.58032 1.44855,27.43074 2.53097,35.22312 1.08244,7.79239 2.39946,19.05264 2.9267,25.02273 0.52726,5.97014 1.51532,13.42829 2.19573,16.57369 1.30263,6.02207 0.34913,12.47605 -1.95815,13.25374 -0.75293,0.25368 -5.4665,0.0821 -10.47468,-0.38142 z m -8.96442,-22.41436 c -0.27797,-5.56676 -1.79055,-8.2898 -3.34507,-6.02204 -1.80785,2.63729 -0.24361,11.57328 1.86283,10.64193 0.92178,-0.40755 1.58879,-2.4865 1.48224,-4.61989 z M 418.22676,341.6697 c -7.4395,-3.1699 -10.75716,-9.52933 -6.83234,-13.09662 2.5778,-2.34297 11.2224,5.62593 12.91026,11.90119 1.05744,3.93142 0.56881,4.02752 -6.07792,1.19543 z M 107.34228,460.98712 c -6.77712,-1.75312 -13.23767,-2.78261 -14.356789,-2.2878 -2.597165,1.14832 -5.710948,-11.84572 -5.511771,-23.00088 0.08321,-4.65563 0.155188,-13.54193 0.160002,-19.74733 0.0046,-6.20542 0.706553,-28.64789 1.559241,-49.87223 0.852682,-21.22434 0.663204,-40.59616 -0.421071,-43.04849 -1.563734,-3.5367 -0.696285,-5.02263 4.194349,-7.18497 3.391191,-1.49938 7.169689,-2.03803 8.396639,-1.19697 1.22697,0.84107 4.06705,0.099 6.31133,-1.64907 2.24422,-1.74805 6.41857,-2.66623 9.27635,-2.0403 5.03223,1.10211 5.15232,1.46719 3.81172,11.58481 -1.28543,9.70138 -2.27712,38.87856 -2.90157,85.36884 -0.14188,10.57398 0.61494,22.94019 1.68212,27.48049 1.06715,4.54029 1.33241,9.14189 0.58941,10.22576 -0.743,1.08391 -0.38377,4.1581 0.79829,6.83155 4.09341,9.25813 -0.25012,11.98688 -13.58831,8.53659 z M 576.8351,225.34439 c -18.57511,-6.03941 -24.69954,-25.93951 -12.70938,-41.29652 6.97413,-8.93246 16.97162,-10.99056 23.68529,-4.87591 2.27815,2.07489 4.75179,3.50296 5.49694,3.1735 1.80197,-0.79674 0.71112,-9.25601 -2.61756,-20.29878 -3.10655,-10.3058 -8.70762,-13.2264 -17.92583,-9.34713 -7.54638,3.17568 -10.18821,-2.87183 -3.07988,-7.05024 7.26299,-4.26937 22.15162,0.92212 26.33208,9.18171 1.71041,3.37923 3.14834,6.69097 3.19529,7.35948 0.047,0.6685 0.68486,3.72126 1.41742,6.78405 0.73252,3.06281 1.00858,12.42575 0.61346,20.80655 -0.78452,16.63954 -0.44931,19.3969 1.68667,13.87506 2.3005,-5.9471 4.92941,-5.59734 4.57538,0.6087 -0.91877,16.10769 -15.38382,26.04956 -30.66988,21.07953 z m 12.14819,-26.59289 c -3.45639,-9.10979 -7.33405,-16.70824 -8.6168,-16.8855 -3.1748,-0.43857 -10.37379,6.93929 -12.74015,13.05669 -3.75351,9.70339 6.88628,25.35702 16.81514,24.73901 10.40735,-0.6478 11.07076,-3.70214 4.54181,-20.9102 z M 291.00128,328.33924 c -5.21937,-0.58233 -9.01336,-7.14178 -6.36529,-11.00486 2.09186,-3.05159 10.13446,1.10654 12.5034,6.46435 1.89185,4.27886 0.53211,5.2847 -6.13811,4.54051 z M 511.75011,210.99345 c -1.30573,-0.89508 -2.17378,-5.36711 -1.92926,-9.93781 0.24465,-4.57068 0.0731,-15.35157 -0.38107,-23.95747 -0.90871,-17.21654 -3.02714,-19.92344 -13.72886,-17.54262 -8.70796,1.93726 -21.37666,-1.63028 -21.59899,-6.08228 -0.14648,-2.9337 2.49736,-3.33478 14.06858,-2.13422 7.83691,0.81308 15.21993,0.51261 16.40667,-0.66776 1.18674,-1.18037 0.73211,-13.77326 -1.01029,-27.98419 -2.75989,-22.50942 -3.88729,-40.843082 -2.7399,-44.555564 0.19369,-0.626736 2.16447,-0.625338 4.37953,0.0023 3.4123,0.968012 4.11416,3.678854 4.59564,17.749495 0.31256,9.133823 1.83674,25.451803 3.38712,36.262123 3.15749,22.01669 3.53776,22.39223 18.75606,18.52366 5.47381,-1.39146 8.99692,-1.02501 9.90568,1.0303 1.43976,3.25636 -0.56062,4.07698 -20.68509,8.48575 -6.46982,1.41735 -7.17963,2.18489 -5.51083,5.95923 1.80371,4.07947 2.11951,7.37505 2.4563,25.63311 0.0756,4.10204 0.62729,9.48448 1.2258,11.96103 1.20229,4.97478 -3.86451,9.81282 -7.59709,7.25416 z m -56.00194,-10.40676 c -3.10386,-0.42875 -3.92239,-2.18217 -5.02846,-10.77169 -0.72662,-5.64273 -1.19397,-12.27419 -1.03855,-14.73658 0.15542,-2.46237 -0.55735,-6.37671 -1.5839,-8.69851 -2.06504,-4.67048 -0.23994,-6.37298 4.75893,-4.4393 2.34573,0.90739 3.72287,4.72971 4.86837,13.51224 2.63078,20.1705 2.19515,25.71012 -1.97639,25.13384 z m -32.80639,-1.18786 c -4.33411,-3.3967 -19.90983,-39.38349 -18.5582,-42.87765 0.29837,-0.77134 2.81159,-0.52473 5.58492,0.54806 4.17958,1.6168 5.89046,4.52613 9.99848,17.00265 2.7258,8.27865 5.59493,14.76962 6.37578,14.42438 3.24675,-1.43552 6.27994,-17.30875 5.10053,-26.69215 -1.31463,-10.4591 -0.93168,-11.25902 5.54517,-11.58244 4.85085,-0.24223 9.2469,9.10313 5.86458,12.46732 -1.37992,1.37251 -3.62778,10.22601 -4.99527,19.67445 -2.67419,18.47682 -6.90755,23.3117 -14.91599,17.03538 z m -82.87372,0.41451 c -6.5579,-0.80214 -13.34564,-2.01979 -15.0839,-2.70587 -6.97803,-2.75414 -15.00183,-8.65286 -16.55812,-12.17271 -3.69109,-8.34816 15.46784,-8.50198 27.548,-0.22121 10.24292,7.02145 11.35537,3.99588 5.93744,-16.14869 -3.18192,-11.83094 -5.49294,-16.98053 -9.03394,-20.13009 -5.74307,-5.1083 -9.71643,-3.91164 -8.66074,2.6084 1.04492,6.45346 -3.88874,6.54101 -7.68184,0.13639 -3.90687,-6.5968 0.6192,-13.20543 9.36152,-13.66903 10.89526,-0.57777 22.99969,19.11632 27.3738,44.53768 0.80449,4.67555 1.53618,5.25306 3.80112,3.00029 2.03872,-2.02781 3.34463,-1.56905 4.7809,1.67938 1.2682,2.86832 0.37355,6.0533 -2.49771,8.89157 -5.99205,5.92321 -5.68862,5.85727 -19.28655,4.19394 z m -10.48097,-12.38863 c -3.97642,-1.68265 -7.48775,-2.39279 -7.80289,-1.57808 -0.77641,2.00716 10.21784,6.76635 12.89576,5.58233 1.17538,-0.51968 -1.11645,-2.32159 -5.09287,-4.00425 z m -41.20955,20.19005 c -2.03007,0.0853 -10.39128,-2.31317 -18.5805,-5.32971 l -14.88942,-5.48458 -2.80694,6.63334 c -2.08571,4.92896 -3.68433,6.29395 -6.22167,5.31243 -2.53736,-0.98152 -1.93272,-9.62441 2.35316,-33.63744 3.17237,-17.7741 5.97321,-40.50089 6.22409,-50.50399 0.45613,-18.18533 2.13991,-21.80906 8.63235,-18.57805 2.54313,1.26562 3.07474,3.84764 2.01011,9.76326 -0.7961,4.42344 -1.4227,11.4868 -1.39246,15.69635 0.0302,4.20955 -1.69034,18.06529 -3.8235,30.79052 -2.13318,12.72523 -3.45562,24.09317 -2.93883,25.26203 0.51682,1.16889 7.03786,4.36429 14.49123,7.10093 9.24704,3.39518 15.36348,4.17453 19.2559,2.45353 4.30667,-1.90417 6.15858,-1.49479 7.55826,1.67087 1.91647,4.33452 -2.78915,8.55335 -9.87178,8.85051 z m 164.52772,-87.04712 c -2.36481,-5.34848 -2.39679,-7.92135 -0.11094,-8.932 6.75191,-2.98531 11.39785,9.19998 5.53933,14.52841 -1.35596,1.2333 -3.29038,-0.76105 -5.42829,-5.59641 z m -353.403263,99.3812 c -2.517713,-2.84966 -2.751136,-5.44371 -0.82406,-9.15693 4.828553,-9.30378 6.194163,-61.16568 2.643823,-100.4026 -0.95951,-10.603726 -1.341521,-20.446618 -0.84895,-21.873075 0.50199,-1.453768 4.95726,-2.032386 10.13798,-1.316752 6.81439,0.941347 11.85321,3.89983 19.18048,11.261547 5.46595,5.49164 14.15952,13.75763 19.31906,18.36887 5.1595,4.61124 13.4367,12.79407 18.39378,18.18407 4.95706,5.39 12.71611,12.3697 17.24233,15.51043 11.7391,8.14578 13.19943,12.8872 5.60428,18.19617 -3.42239,2.39226 -7.75537,5.98454 -9.62881,7.98284 -1.87347,1.99831 -16.40406,11.22411 -32.29019,20.50176 -15.88617,9.27765 -32.60383,19.08496 -37.15038,21.79406 -7.23187,4.30914 -8.70609,4.428 -11.779343,0.94961 z m 30.655553,-26.07398 c -2.3914,-0.92508 -4.15163,-0.16849 -6.21288,2.67078 -2.52136,3.47286 -2.10976,3.63206 3.33677,1.29073 4.53085,-1.94764 5.3095,-3.02021 2.87611,-3.96149 z m 31.69356,-51.34875 c -0.50983,-1.15306 -1.87037,-1.67937 -3.02346,-1.16955 -1.15307,0.50983 -1.67938,1.87039 -1.16955,3.02346 0.50983,1.15309 1.87039,1.67938 3.02346,1.16956 1.1531,-0.50984 1.67938,-1.87038 1.16955,-3.02347 z m -46.81434,-41.2815 c -3.07341,-1.18886 -3.4132,2.79709 -0.41373,4.85322 2.26581,1.55321 2.7604,1.33652 2.52853,-1.10796 -0.15839,-1.67131 -1.11016,-3.35669 -2.11485,-3.74535 z"
         id="path3138"
         inkscape:connector-curvature="0" />
      <path
         transform="translate(3.324999,3.324999)"
         d="m 232.74992,566.91235 a 4.1562486,4.9874983 0 1 1 -8.31249,0 4.1562486,4.9874983 0 1 1 8.31249,0 z"
         sodipodi:ry="4.9874983"
         sodipodi:rx="4.1562486"
         sodipodi:cy="566.91235"
         sodipodi:cx="228.59367"
         id="path3145"
         style="fill:#4d4d4d"
         sodipodi:type="arc" />
    </g>
  </g>
</svg>
